<svg width="1204" height="867" viewBox="0 0 1204 867" fill="none" xmlns="http://www.w3.org/2000/svg">
<path d="M898 481.727C898 632.501 775.774 460.227 625 460.227C474.226 460.227 352 632.501 352 481.727C352 330.953 474.226 208.727 625 208.727C775.774 208.727 898 330.953 898 481.727Z" fill="#FFE00D"/>
<path d="M497.5 405.727L491.5 423.227L489 441.727L231 429.278L282.968 259.626L497.5 405.727Z" fill="#EB500E"/>
<path d="M760.57 409.329L766.278 427.921L768.987 446.466L1022.54 440.889L974.75 270.012L760.57 409.329Z" fill="#EB500E"/>
<path d="M670 320.727L686.5 326.727L701 334.227L889.655 151.55L738.614 58.4407L670 320.727Z" fill="#EB500E"/>
<path d="M566.597 331.032L581.756 323.859L598.872 318.729L525.428 63.0755L372.077 152.329L566.597 331.032Z" fill="#EB500E"/>
<path d="M768 485.227L763 503.727L757.5 516.727L1064.92 532.948L1066.76 453.969L768 485.227Z" fill="#FF8900"/>
<path d="M492.5 492.227L498 509.227L505 523.727L191.03 532.662V453.662L492.5 492.227Z" fill="#FF8900"/>
<path d="M534.499 351.227L523.5 362.727L513 375.727L269.999 207.355L316.822 143.727L534.499 351.227Z" fill="#FF8900"/>
<path d="M648.517 315.995L633.517 314.495L618.517 314.995L593.559 3.93805L672.461 -4.70968e-06L648.517 315.995Z" fill="#FF8900"/>
<path d="M744 374.227L734.5 361.727L723.5 350.727L967.12 163.774L1013.27 227.892L744 374.227Z" fill="#FF8900"/>
<rect y="573.728" width="1204" height="28" fill="#FFE00D"/>
<rect y="776.728" width="1204" height="90" fill="#FFE00D"/>
<path d="M235 670.909V652.637H313.682V670.909H285.455V745.728H263.273V670.909H235ZM333.182 745.728H309L340.409 652.637H370.364L401.773 745.728H377.591L355.727 676.091H355L333.182 745.728ZM329.955 709.091H380.5V726.182H329.955V709.091ZM411.795 652.637H439.659L463.295 710.273H464.386L488.023 652.637H515.886V745.728H493.977V688.546H493.205L470.841 745.137H456.841L434.477 688.228H433.705V745.728H411.795V652.637ZM529.92 745.728V652.637H568.739C575.708 652.637 581.542 653.622 586.239 655.591C590.966 657.561 594.511 660.319 596.875 663.864C599.269 667.409 600.466 671.516 600.466 676.182C600.466 679.728 599.723 682.894 598.239 685.682C596.754 688.44 594.708 690.728 592.102 692.546C589.496 694.364 586.481 695.637 583.057 696.364V697.273C586.814 697.455 590.284 698.47 593.466 700.319C596.678 702.167 599.254 704.743 601.193 708.046C603.133 711.319 604.102 715.197 604.102 719.682C604.102 724.682 602.83 729.152 600.284 733.091C597.739 737 594.057 740.091 589.239 742.364C584.42 744.606 578.572 745.728 571.693 745.728H529.92ZM552.42 727.591H566.33C571.208 727.591 574.799 726.667 577.102 724.819C579.436 722.97 580.602 720.394 580.602 717.091C580.602 714.697 580.042 712.637 578.92 710.909C577.799 709.152 576.208 707.803 574.148 706.864C572.087 705.894 569.617 705.409 566.739 705.409H552.42V727.591ZM552.42 690.909H564.875C567.33 690.909 569.511 690.5 571.42 689.682C573.33 688.864 574.814 687.682 575.875 686.137C576.966 684.591 577.511 682.728 577.511 680.546C577.511 677.425 576.405 674.97 574.193 673.182C571.981 671.394 568.996 670.5 565.239 670.5H552.42V690.909ZM702.784 699.182C702.784 709.425 700.814 718.106 696.875 725.228C692.936 732.349 687.602 737.758 680.875 741.455C674.178 745.152 666.663 747 658.33 747C649.966 747 642.436 745.137 635.739 741.409C629.042 737.682 623.723 732.273 619.784 725.182C615.875 718.061 613.92 709.394 613.92 699.182C613.92 688.94 615.875 680.258 619.784 673.137C623.723 666.016 629.042 660.606 635.739 656.909C642.436 653.213 649.966 651.364 658.33 651.364C666.663 651.364 674.178 653.213 680.875 656.909C687.602 660.606 692.936 666.016 696.875 673.137C700.814 680.258 702.784 688.94 702.784 699.182ZM679.784 699.182C679.784 693.122 678.92 688 677.193 683.819C675.496 679.637 673.042 676.47 669.83 674.319C666.648 672.167 662.814 671.091 658.33 671.091C653.875 671.091 650.042 672.167 646.83 674.319C643.617 676.47 641.148 679.637 639.42 683.819C637.723 688 636.875 693.122 636.875 699.182C636.875 705.243 637.723 710.364 639.42 714.546C641.148 718.728 643.617 721.894 646.83 724.046C650.042 726.197 653.875 727.273 658.33 727.273C662.814 727.273 666.648 726.197 669.83 724.046C673.042 721.894 675.496 718.728 677.193 714.546C678.92 710.364 679.784 705.243 679.784 699.182ZM765.92 652.637V745.728H743.42V652.637H765.92ZM859.273 652.637V745.728H840.182L803.136 692H802.545V745.728H780.045V652.637H799.409L836.045 706.273H836.818V652.637H859.273ZM873.42 745.728V652.637H895.92V692H897.148L927.92 652.637H954.42L921.42 694.182L955.011 745.728H928.102L904.92 709.137L895.92 720.5V745.728H873.42ZM983.432 745.728H959.25L990.659 652.637H1020.61L1052.02 745.728H1027.84L1005.98 676.091H1005.25L983.432 745.728ZM980.205 709.091H1030.75V726.182H980.205V709.091Z" fill="white"/>
</svg>
